<svg id="Layer_1" data-name="Layer 1" xmlns="http://www.w3.org/2000/svg" viewBox="0 0 390 390"><defs><style>.cls-1{fill:#f44336;}.cls-2{fill:#fff;}</style></defs><title>Artboard 1</title><circle class="cls-1" cx="195" cy="195" r="195"/><path class="cls-2" d="M60.36,336.21Q48.41,322,48,293.56V139H23V110H48V41H92v69h38v29H92V290.7q0,14.36,4.54,20.09t17.35,5.74A103.9,103.9,0,0,0,130,315.3V348a206.65,206.65,0,0,1-30.49,2.47Q72.31,350.42,60.36,336.21Z"/><path class="cls-2" d="M186.36,336.21Q174.41,322,174,293.56V139H149V110h25V41h44v69h38v29H218V290.7q0,14.36,4.54,20.09t17.35,5.74A103.91,103.91,0,0,0,256,315.3V348a206.66,206.66,0,0,1-30.49,2.47Q198.31,350.42,186.36,336.21Z"/></svg>